<svg xmlns="http://www.w3.org/2000/svg" version="1.1" xmlns:xlink="http://www.w3.org/1999/xlink" xmlns:svgjs="http://svgjs.dev/svgjs" width="2000" height="1500" viewBox="0 0 2000 1500"><rect width="2000" height="1500" fill="#8abcb4"></rect><g transform="matrix(0.75,0,0,0.75,249.76813382634714,122.7582995951417)"><svg viewBox="0 0 295 247" data-background-color="#8abcb4" preserveAspectRatio="xMidYMid meet" height="1674" width="2000" xmlns="http://www.w3.org/2000/svg" xmlns:xlink="http://www.w3.org/1999/xlink"><g id="tight-bounds" transform="matrix(1,0,0,1,0.04560034748504904,-0.09999999999999432)"><svg viewBox="0 0 294.9087993050299 247.2" height="247.2" width="294.9087993050299"><g><svg viewBox="0 0 395.52 331.53484816460815" height="247.2" width="294.9087993050299"><g><svg viewBox="0 0 395.52 105.96651038178165" height="105.96651038178165" width="395.52"><g id="textblocktransform"><svg viewBox="0 0 395.52 105.96651038178165" height="105.96651038178165" width="395.52" id="textblock"><g><svg viewBox="0 0 395.52 105.96651038178165" height="105.96651038178165" width="395.52"><g transform="matrix(1,0,0,1,0,0)"><svg width="395.52" viewBox="147.43 -35.75 373.24999999999994 86" height="105.96651038178165" data-palette-color="#ff6cab"><svg></svg><svg></svg><g class="wordmark-text-0" data-fill-palette-color="primary" id="text-0"><path d="M178.53-0.05l-31.1 0.05v-35.65l30.1-0.1c3.967 0 6.91 0.827 8.83 2.48 1.913 1.647 2.87 4.12 2.87 7.42v0c0 3.3-1.1 5.717-3.3 7.25v0c1.467 0.8 2.55 1.857 3.25 3.17 0.7 1.32 1.05 3.013 1.05 5.08v0c0 3.367-0.957 5.923-2.87 7.67-1.92 1.753-4.863 2.63-8.83 2.63zM176.58-29.35v0h-21.15v8h21.15c3.033 0 4.55-1.367 4.55-4.1v0c0-2.6-1.517-3.9-4.55-3.9zM177.58-14.95v0h-22.15v8.5h22.15c3.033 0 4.55-1.433 4.55-4.3v0c0-2.8-1.517-4.2-4.55-4.2zM228.28 0h-26.45c-2.7 0-4.767-0.683-6.2-2.05-1.433-1.367-2.15-3.317-2.15-5.85v0c0-2.5 0.717-4.433 2.15-5.8 1.433-1.367 3.5-2.05 6.2-2.05v0h19.2v-1.2c0-2.033-1-3.05-3-3.05v0h-21.2v-5.75h23.1c3.033 0 5.183 0.69 6.45 2.07 1.267 1.387 1.9 3.33 1.9 5.83v0zM203.13-5.75v0h17.9v-4.25h-17.9c-0.633 0-1.123 0.19-1.47 0.57-0.353 0.387-0.53 0.897-0.53 1.53v0c0 0.633 0.177 1.15 0.53 1.55 0.347 0.4 0.837 0.6 1.47 0.6zM264.23 0.25h-17.25c-4.467 0-7.95-1.11-10.45-3.33-2.5-2.213-3.75-5.47-3.75-9.77v0c0-4.333 1.25-7.61 3.75-9.83 2.5-2.213 5.983-3.32 10.45-3.32v0h16.75v5.75h-16.75c-2.167 0-3.823 0.6-4.97 1.8-1.153 1.2-1.73 3.067-1.73 5.6v0c0 2.5 0.577 4.35 1.73 5.55 1.147 1.2 2.803 1.8 4.97 1.8v0h17.25zM275.23 0h-7.25v-35.75h7.25v10h17.3c2.933 0 5.177 0.69 6.73 2.07 1.547 1.387 2.32 3.363 2.32 5.93v0c0 4.2-2 6.7-6 7.5v0l6.1 10.25h-8.15l-5.9-9.95h-12.4zM292.18-20.05v0h-16.95v4.4h16.95c0.667 0 1.193-0.2 1.58-0.6 0.38-0.4 0.57-0.95 0.57-1.65v0c0-1.433-0.717-2.15-2.15-2.15zM328.68 11.25h-16.9v-5.75h15.1c2 0 3-1.017 3-3.05v0-2.45h-11c-4.467 0-7.95-1.1-10.45-3.3-2.5-2.2-3.75-5.383-3.75-9.55v0c0-4.2 1.25-7.4 3.75-9.6 2.5-2.2 5.983-3.3 10.45-3.3v0h18.25v29.1c0 2.367-0.683 4.277-2.05 5.73-1.367 1.447-3.5 2.17-6.4 2.17zM318.88-5.75v0h11v-14.25h-11c-2.167 0-3.827 0.59-4.98 1.77-1.147 1.187-1.72 2.98-1.72 5.38v0c0 2.367 0.573 4.14 1.72 5.32 1.153 1.187 2.813 1.78 4.98 1.78zM349.98 0h-7.35v-25.75h19.7c2.9 0 5.033 0.723 6.4 2.17 1.367 1.453 2.05 3.363 2.05 5.73v0 5.35h-7.35v-4.45c0-2-1-3-3-3v0h-10.45zM398.23 0.25h-9.25c-4.467 0-7.95-1.11-10.45-3.33-2.5-2.213-3.75-5.47-3.75-9.77v0c0-4.333 1.25-7.61 3.75-9.83 2.5-2.213 5.983-3.32 10.45-3.32v0h9.25c4.467 0 7.95 1.107 10.45 3.32 2.5 2.22 3.75 5.497 3.75 9.83v0c0 4.3-1.25 7.557-3.75 9.77-2.5 2.22-5.983 3.33-10.45 3.33zM388.98-5.5v0h9.25c2.167 0 3.823-0.6 4.97-1.8 1.153-1.2 1.73-3.05 1.73-5.55v0c0-2.533-0.577-4.4-1.73-5.6-1.147-1.2-2.803-1.8-4.97-1.8v0h-9.25c-2.167 0-3.827 0.6-4.98 1.8-1.147 1.2-1.72 3.067-1.72 5.6v0c0 2.5 0.573 4.35 1.72 5.55 1.153 1.2 2.813 1.8 4.98 1.8zM439.13 0h-14c-2.933 0-5.077-0.733-6.43-2.2-1.347-1.467-2.02-3.367-2.02-5.7v0-17.85h7.25v17c0 2 1 3 3 3v0h10.4c2 0 3-1 3-3v0-17h7.25v17.85c0 2.333-0.673 4.233-2.02 5.7-1.353 1.467-3.497 2.2-6.43 2.2zM460.08 0h-7.25v-25.75h22.45c2.933 0 5.073 0.723 6.42 2.17 1.353 1.453 2.03 3.363 2.03 5.73v0 17.85h-7.25v-17c0-2-1-3-3-3v0h-13.4zM513.43 0h7.25v-35.75h-7.25zM502.18 0h17.25v-5.75h-17.25c-2.167 0-3.827-0.593-4.98-1.78-1.147-1.18-1.72-2.953-1.72-5.32v0c0-2.4 0.573-4.193 1.72-5.38 1.153-1.18 2.813-1.77 4.98-1.77v0h16.75v-5.75h-16.75c-4.467 0-7.95 1.1-10.45 3.3-2.5 2.2-3.75 5.4-3.75 9.6v0c0 4.167 1.25 7.35 3.75 9.55 2.5 2.2 5.983 3.3 10.45 3.3z" fill="#ff6cab" fill-rule="nonzero" stroke="none" stroke-width="1" stroke-linecap="butt" stroke-linejoin="miter" stroke-miterlimit="10" stroke-dasharray="" stroke-dashoffset="0" font-family="none" font-weight="none" font-size="none" text-anchor="none" style="mix-blend-mode: normal" data-fill-palette-color="primary" opacity="1"></path><path d="M208.13 50.25h-21.95c-6.1 0-10.857-1.527-14.27-4.58-3.42-3.047-5.13-7.57-5.13-13.57v0c0-5.967 1.743-10.477 5.23-13.53 3.48-3.047 8.537-4.57 15.17-4.57v0h19v6.5h-18.45c-4.367 0-7.59 0.917-9.67 2.75-2.087 1.833-3.13 4.783-3.13 8.85v0c0 3.867 0.917 6.723 2.75 8.57 1.833 1.853 4.517 2.863 8.05 3.03v0-13.9h22.4zM193.23 36.3v7.45h6.9v-7.45zM247.83 50.25h-20.25c-4.467 0-7.95-1.11-10.45-3.33-2.5-2.213-3.75-5.47-3.75-9.77v0c0-4.333 1.25-7.61 3.75-9.83 2.5-2.213 5.983-3.32 10.45-3.32v0h12.5c2.933 0 5.177 0.69 6.73 2.07 1.547 1.387 2.32 3.363 2.32 5.93v0c0 5.233-3.017 7.85-9.05 7.85v0h-18.9c0.7 3.1 2.833 4.65 6.4 4.65v0h20.25zM239.73 29.75h-12.15c-3.433 0-5.55 1.45-6.35 4.35v0h18.5c0.667 0 1.193-0.2 1.58-0.6 0.38-0.4 0.57-0.95 0.57-1.65v0c0-1.4-0.717-2.1-2.15-2.1zM260.88 50h-7.25v-25.75h22.45c2.933 0 5.073 0.723 6.42 2.17 1.353 1.453 2.03 3.363 2.03 5.73v0 17.85h-7.25v-17c0-2-1-3-3-3v0h-13.4zM323.23 50.25h-20.25c-4.467 0-7.95-1.11-10.45-3.33-2.5-2.213-3.75-5.47-3.75-9.77v0c0-4.333 1.25-7.61 3.75-9.83 2.5-2.213 5.983-3.32 10.45-3.32v0h12.5c2.933 0 5.177 0.69 6.73 2.07 1.547 1.387 2.32 3.363 2.32 5.93v0c0 5.233-3.017 7.85-9.05 7.85v0h-18.9c0.7 3.1 2.833 4.65 6.4 4.65v0h20.25zM315.13 29.75h-12.15c-3.433 0-5.55 1.45-6.35 4.35v0h18.5c0.667 0 1.193-0.2 1.58-0.6 0.38-0.4 0.57-0.95 0.57-1.65v0c0-1.4-0.717-2.1-2.15-2.1zM336.38 50h-7.35v-25.75h19.7c2.9 0 5.033 0.723 6.4 2.17 1.367 1.453 2.05 3.363 2.05 5.73v0 5.35h-7.35v-4.45c0-2-1-3-3-3v0h-10.45zM394.48 50h-26.45c-2.7 0-4.767-0.683-6.2-2.05-1.433-1.367-2.15-3.317-2.15-5.85v0c0-2.5 0.717-4.433 2.15-5.8 1.433-1.367 3.5-2.05 6.2-2.05v0h19.2v-1.2c0-2.033-1-3.05-3-3.05v0h-21.2v-5.75h23.1c3.033 0 5.183 0.69 6.45 2.07 1.267 1.387 1.9 3.33 1.9 5.83v0zM369.33 44.25v0h17.9v-4.25h-17.9c-0.633 0-1.123 0.19-1.47 0.57-0.353 0.387-0.53 0.897-0.53 1.53v0c0 0.633 0.177 1.15 0.53 1.55 0.347 0.4 0.837 0.6 1.47 0.6zM424.28 50h-10.9c-2.9 0-5.033-0.727-6.4-2.18-1.367-1.447-2.05-3.353-2.05-5.72v0-12.1h-7.45v-5.75h7.45v-7.9h7.25v7.9h10.7v5.75h-10.7v11.2c0 2.033 1 3.05 3 3.05v0h9.1zM450.48 50.25h-9.25c-4.467 0-7.95-1.11-10.45-3.33-2.5-2.213-3.75-5.47-3.75-9.77v0c0-4.333 1.25-7.61 3.75-9.83 2.5-2.213 5.983-3.32 10.45-3.32v0h9.25c4.467 0 7.95 1.107 10.45 3.32 2.5 2.22 3.75 5.497 3.75 9.83v0c0 4.3-1.25 7.557-3.75 9.77-2.5 2.22-5.983 3.33-10.45 3.33zM441.23 44.5v0h9.25c2.167 0 3.827-0.6 4.98-1.8 1.147-1.2 1.72-3.05 1.72-5.55v0c0-2.533-0.573-4.4-1.72-5.6-1.153-1.2-2.813-1.8-4.98-1.8v0h-9.25c-2.167 0-3.823 0.6-4.97 1.8-1.153 1.2-1.73 3.067-1.73 5.6v0c0 2.5 0.577 4.35 1.73 5.55 1.147 1.2 2.803 1.8 4.97 1.8zM476.53 50h-7.35v-25.75h19.7c2.9 0 5.033 0.723 6.4 2.17 1.367 1.453 2.05 3.363 2.05 5.73v0 5.35h-7.35v-4.45c0-2-1-3-3-3v0h-10.45z" fill="#ff6cab" fill-rule="nonzero" stroke="none" stroke-width="1" stroke-linecap="butt" stroke-linejoin="miter" stroke-miterlimit="10" stroke-dasharray="" stroke-dashoffset="0" font-family="none" font-weight="none" font-size="none" text-anchor="none" style="mix-blend-mode: normal" data-fill-palette-color="primary" opacity="1"></path></g></svg></g></svg></g></svg></g></svg></g><g transform="matrix(1,0,0,1,90.85462633623575,117.7241008370797)"><svg viewBox="0 0 213.81074732752847 213.81074732752847" height="213.81074732752847" width="213.81074732752847"><g data-palette-color="url(#46d92e13-bcfc-4eaf-ab93-ea45c0ec1384)"></g></svg></g><g></g></svg></g><defs></defs><mask id="5eae0ed6-6e6a-4603-9308-0e257a7f670c"><g id="SvgjsG4795"><svg viewBox="0 0 294.9087993050299 247.2" height="247.2" width="294.9087993050299"><g><svg viewBox="0 0 395.52 331.53484816460815" height="247.2" width="294.9087993050299"><g><svg viewBox="0 0 395.52 105.96651038178165" height="105.96651038178165" width="395.52"><g id="SvgjsG4794"><svg viewBox="0 0 395.52 105.96651038178165" height="105.96651038178165" width="395.52" id="SvgjsSvg4793"><g><svg viewBox="0 0 395.52 105.96651038178165" height="105.96651038178165" width="395.52"><g transform="matrix(1,0,0,1,0,0)"><svg width="395.52" viewBox="147.43 -35.75 373.24999999999994 86" height="105.96651038178165" data-palette-color="#ff6cab"><svg></svg><svg></svg><g class="wordmark-text-0" data-fill-palette-color="primary" id="SvgjsG4792"><path d="M178.53-0.05l-31.1 0.05v-35.65l30.1-0.1c3.967 0 6.91 0.827 8.83 2.48 1.913 1.647 2.87 4.12 2.87 7.42v0c0 3.3-1.1 5.717-3.3 7.25v0c1.467 0.8 2.55 1.857 3.25 3.17 0.7 1.32 1.05 3.013 1.05 5.08v0c0 3.367-0.957 5.923-2.87 7.67-1.92 1.753-4.863 2.63-8.83 2.63zM176.58-29.35v0h-21.15v8h21.15c3.033 0 4.55-1.367 4.55-4.1v0c0-2.6-1.517-3.9-4.55-3.9zM177.58-14.95v0h-22.15v8.5h22.15c3.033 0 4.55-1.433 4.55-4.3v0c0-2.8-1.517-4.2-4.55-4.2zM228.28 0h-26.45c-2.7 0-4.767-0.683-6.2-2.05-1.433-1.367-2.15-3.317-2.15-5.85v0c0-2.5 0.717-4.433 2.15-5.8 1.433-1.367 3.5-2.05 6.2-2.05v0h19.2v-1.2c0-2.033-1-3.05-3-3.05v0h-21.2v-5.75h23.1c3.033 0 5.183 0.69 6.45 2.07 1.267 1.387 1.9 3.33 1.9 5.83v0zM203.13-5.75v0h17.9v-4.25h-17.9c-0.633 0-1.123 0.19-1.47 0.57-0.353 0.387-0.53 0.897-0.53 1.53v0c0 0.633 0.177 1.15 0.53 1.55 0.347 0.4 0.837 0.6 1.47 0.6zM264.23 0.25h-17.25c-4.467 0-7.95-1.11-10.45-3.33-2.5-2.213-3.75-5.47-3.75-9.77v0c0-4.333 1.25-7.61 3.75-9.83 2.5-2.213 5.983-3.32 10.45-3.32v0h16.75v5.75h-16.75c-2.167 0-3.823 0.6-4.97 1.8-1.153 1.2-1.73 3.067-1.73 5.6v0c0 2.5 0.577 4.35 1.73 5.55 1.147 1.2 2.803 1.8 4.97 1.8v0h17.25zM275.23 0h-7.25v-35.75h7.25v10h17.3c2.933 0 5.177 0.69 6.73 2.07 1.547 1.387 2.32 3.363 2.32 5.93v0c0 4.2-2 6.7-6 7.5v0l6.1 10.25h-8.15l-5.9-9.95h-12.4zM292.18-20.05v0h-16.95v4.4h16.95c0.667 0 1.193-0.2 1.58-0.6 0.38-0.4 0.57-0.95 0.57-1.65v0c0-1.433-0.717-2.15-2.15-2.15zM328.68 11.25h-16.9v-5.75h15.1c2 0 3-1.017 3-3.05v0-2.45h-11c-4.467 0-7.95-1.1-10.45-3.3-2.5-2.2-3.75-5.383-3.75-9.55v0c0-4.2 1.25-7.4 3.75-9.6 2.5-2.2 5.983-3.3 10.45-3.3v0h18.25v29.1c0 2.367-0.683 4.277-2.05 5.73-1.367 1.447-3.5 2.17-6.4 2.17zM318.88-5.75v0h11v-14.25h-11c-2.167 0-3.827 0.59-4.98 1.77-1.147 1.187-1.72 2.98-1.72 5.38v0c0 2.367 0.573 4.14 1.72 5.32 1.153 1.187 2.813 1.78 4.98 1.78zM349.98 0h-7.35v-25.75h19.7c2.9 0 5.033 0.723 6.4 2.17 1.367 1.453 2.05 3.363 2.05 5.73v0 5.35h-7.35v-4.45c0-2-1-3-3-3v0h-10.45zM398.23 0.25h-9.25c-4.467 0-7.95-1.11-10.45-3.33-2.5-2.213-3.75-5.47-3.75-9.77v0c0-4.333 1.25-7.61 3.75-9.83 2.5-2.213 5.983-3.32 10.45-3.32v0h9.25c4.467 0 7.95 1.107 10.45 3.32 2.5 2.22 3.75 5.497 3.75 9.83v0c0 4.3-1.25 7.557-3.75 9.77-2.5 2.22-5.983 3.33-10.45 3.33zM388.98-5.5v0h9.25c2.167 0 3.823-0.6 4.97-1.8 1.153-1.2 1.73-3.05 1.73-5.55v0c0-2.533-0.577-4.4-1.73-5.6-1.147-1.2-2.803-1.8-4.97-1.8v0h-9.25c-2.167 0-3.827 0.6-4.98 1.8-1.147 1.2-1.72 3.067-1.72 5.6v0c0 2.5 0.573 4.35 1.72 5.55 1.153 1.2 2.813 1.8 4.98 1.8zM439.13 0h-14c-2.933 0-5.077-0.733-6.43-2.2-1.347-1.467-2.02-3.367-2.02-5.7v0-17.85h7.25v17c0 2 1 3 3 3v0h10.4c2 0 3-1 3-3v0-17h7.25v17.85c0 2.333-0.673 4.233-2.02 5.7-1.353 1.467-3.497 2.2-6.43 2.2zM460.08 0h-7.25v-25.75h22.45c2.933 0 5.073 0.723 6.42 2.17 1.353 1.453 2.03 3.363 2.03 5.73v0 17.85h-7.25v-17c0-2-1-3-3-3v0h-13.4zM513.43 0h7.25v-35.75h-7.25zM502.18 0h17.25v-5.75h-17.25c-2.167 0-3.827-0.593-4.98-1.78-1.147-1.18-1.72-2.953-1.72-5.32v0c0-2.4 0.573-4.193 1.72-5.38 1.153-1.18 2.813-1.77 4.98-1.77v0h16.75v-5.75h-16.75c-4.467 0-7.95 1.1-10.45 3.3-2.5 2.2-3.75 5.4-3.75 9.6v0c0 4.167 1.25 7.35 3.75 9.55 2.5 2.2 5.983 3.3 10.45 3.3z" fill="black" fill-rule="nonzero" stroke="none" stroke-width="1" stroke-linecap="butt" stroke-linejoin="miter" stroke-miterlimit="10" stroke-dasharray="" stroke-dashoffset="0" font-family="none" font-weight="none" font-size="none" text-anchor="none" style="mix-blend-mode: normal" opacity="1"></path><path d="M208.13 50.25h-21.95c-6.1 0-10.857-1.527-14.27-4.58-3.42-3.047-5.13-7.57-5.13-13.57v0c0-5.967 1.743-10.477 5.23-13.53 3.48-3.047 8.537-4.57 15.17-4.57v0h19v6.5h-18.45c-4.367 0-7.59 0.917-9.67 2.75-2.087 1.833-3.13 4.783-3.13 8.85v0c0 3.867 0.917 6.723 2.75 8.57 1.833 1.853 4.517 2.863 8.05 3.03v0-13.9h22.4zM193.23 36.3v7.45h6.9v-7.45zM247.83 50.25h-20.25c-4.467 0-7.95-1.11-10.45-3.33-2.5-2.213-3.75-5.47-3.75-9.77v0c0-4.333 1.25-7.61 3.75-9.83 2.5-2.213 5.983-3.32 10.45-3.32v0h12.5c2.933 0 5.177 0.69 6.73 2.07 1.547 1.387 2.32 3.363 2.32 5.93v0c0 5.233-3.017 7.85-9.05 7.85v0h-18.9c0.7 3.1 2.833 4.65 6.4 4.65v0h20.25zM239.73 29.75h-12.15c-3.433 0-5.55 1.45-6.35 4.35v0h18.5c0.667 0 1.193-0.2 1.58-0.6 0.38-0.4 0.57-0.95 0.57-1.65v0c0-1.4-0.717-2.1-2.15-2.1zM260.88 50h-7.25v-25.75h22.45c2.933 0 5.073 0.723 6.42 2.17 1.353 1.453 2.03 3.363 2.03 5.73v0 17.85h-7.25v-17c0-2-1-3-3-3v0h-13.4zM323.23 50.25h-20.25c-4.467 0-7.95-1.11-10.45-3.33-2.5-2.213-3.75-5.47-3.75-9.77v0c0-4.333 1.25-7.61 3.75-9.83 2.5-2.213 5.983-3.32 10.45-3.32v0h12.5c2.933 0 5.177 0.69 6.73 2.07 1.547 1.387 2.32 3.363 2.32 5.93v0c0 5.233-3.017 7.85-9.05 7.85v0h-18.9c0.7 3.1 2.833 4.65 6.4 4.65v0h20.25zM315.13 29.75h-12.15c-3.433 0-5.55 1.45-6.35 4.35v0h18.5c0.667 0 1.193-0.2 1.58-0.6 0.38-0.4 0.57-0.95 0.57-1.65v0c0-1.4-0.717-2.1-2.15-2.1zM336.38 50h-7.35v-25.75h19.7c2.9 0 5.033 0.723 6.4 2.17 1.367 1.453 2.05 3.363 2.05 5.73v0 5.35h-7.35v-4.45c0-2-1-3-3-3v0h-10.45zM394.48 50h-26.45c-2.7 0-4.767-0.683-6.2-2.05-1.433-1.367-2.15-3.317-2.15-5.85v0c0-2.5 0.717-4.433 2.15-5.8 1.433-1.367 3.5-2.05 6.2-2.05v0h19.2v-1.2c0-2.033-1-3.05-3-3.05v0h-21.2v-5.75h23.1c3.033 0 5.183 0.69 6.45 2.07 1.267 1.387 1.9 3.33 1.9 5.83v0zM369.33 44.25v0h17.9v-4.25h-17.9c-0.633 0-1.123 0.19-1.47 0.57-0.353 0.387-0.53 0.897-0.53 1.53v0c0 0.633 0.177 1.15 0.53 1.55 0.347 0.4 0.837 0.6 1.47 0.6zM424.28 50h-10.9c-2.9 0-5.033-0.727-6.4-2.18-1.367-1.447-2.05-3.353-2.05-5.72v0-12.1h-7.45v-5.75h7.45v-7.9h7.25v7.9h10.7v5.75h-10.7v11.2c0 2.033 1 3.05 3 3.05v0h9.1zM450.48 50.25h-9.25c-4.467 0-7.95-1.11-10.45-3.33-2.5-2.213-3.75-5.47-3.75-9.77v0c0-4.333 1.25-7.61 3.75-9.83 2.5-2.213 5.983-3.32 10.45-3.32v0h9.25c4.467 0 7.95 1.107 10.45 3.32 2.5 2.22 3.75 5.497 3.75 9.83v0c0 4.3-1.25 7.557-3.75 9.77-2.5 2.22-5.983 3.33-10.45 3.33zM441.23 44.5v0h9.25c2.167 0 3.827-0.6 4.98-1.8 1.147-1.2 1.72-3.05 1.72-5.55v0c0-2.533-0.573-4.4-1.72-5.6-1.153-1.2-2.813-1.8-4.98-1.8v0h-9.25c-2.167 0-3.823 0.6-4.97 1.8-1.153 1.2-1.73 3.067-1.73 5.6v0c0 2.5 0.577 4.35 1.73 5.55 1.147 1.2 2.803 1.8 4.97 1.8zM476.53 50h-7.35v-25.75h19.7c2.9 0 5.033 0.723 6.4 2.17 1.367 1.453 2.05 3.363 2.05 5.73v0 5.35h-7.35v-4.45c0-2-1-3-3-3v0h-10.45z" fill="black" fill-rule="nonzero" stroke="none" stroke-width="1" stroke-linecap="butt" stroke-linejoin="miter" stroke-miterlimit="10" stroke-dasharray="" stroke-dashoffset="0" font-family="none" font-weight="none" font-size="none" text-anchor="none" style="mix-blend-mode: normal" opacity="1"></path></g></svg></g></svg></g></svg></g></svg></g><g transform="matrix(1,0,0,1,90.85462633623575,117.7241008370797)"><svg viewBox="0 0 213.81074732752847 213.81074732752847" height="213.81074732752847" width="213.81074732752847"><g data-palette-color="url(#46d92e13-bcfc-4eaf-ab93-ea45c0ec1384)"><rect width="213.81074732752847" height="58.44160426952445" fill="white" stroke="transparent" y="0" fill-opacity="1"></rect><rect width="213.81074732752847" height="58.44160426952445" fill="white" stroke="transparent" y="71.27024910917615" fill-opacity="0.75"></rect><rect width="213.81074732752847" height="58.44160426952445" fill="white" stroke="transparent" y="142.5404982183523" fill-opacity="0.5"></rect></g></svg></g><g></g></svg></g><defs><mask></mask></defs></svg><rect width="294.9087993050299" height="247.2" fill="black" stroke="none" visibility="hidden"></rect></g></mask><linearGradient x1="0" x2="1" y1="0.548" y2="0.55" id="46d92e13-bcfc-4eaf-ab93-ea45c0ec1384"><stop stop-color="#ff6cab" offset="0"></stop><stop stop-color="#7366ff" offset="1"></stop></linearGradient><rect width="294.9087993050299" height="247.2" fill="url(#46d92e13-bcfc-4eaf-ab93-ea45c0ec1384)" mask="url(#5eae0ed6-6e6a-4603-9308-0e257a7f670c)" data-fill-palette-color="accent"></rect></svg><rect width="294.9087993050299" height="247.2" fill="none" stroke="none" visibility="hidden"></rect></g></svg></g></svg>